<svg xmlns="http://www.w3.org/2000/svg" viewBox="0 0 120 104" width="48" height="42" aria-hidden="true"><circle cx="37" cy="33" r="19" fill="#9CCB6E" stroke="#2F4A23" stroke-width="3.5"></circle><circle cx="83" cy="33" r="19" fill="#9CCB6E" stroke="#2F4A23" stroke-width="3.5"></circle><ellipse cx="60" cy="66" rx="50" ry="35" fill="#9CCB6E" stroke="#2F4A23" stroke-width="3.5"></ellipse><circle cx="37" cy="33" r="17.2" fill="#9CCB6E"></circle><circle cx="83" cy="33" r="17.2" fill="#9CCB6E"></circle><ellipse cx="60" cy="67" rx="48" ry="32.5" fill="#9CCB6E"></ellipse><ellipse cx="60" cy="82" rx="26" ry="14" fill="#C6E3A2"></ellipse><circle cx="37" cy="33" r="13" fill="#FFFDF6" stroke="#2F4A23" stroke-width="3.5"></circle><circle cx="83" cy="33" r="13" fill="#FFFDF6" stroke="#2F4A23" stroke-width="3.5"></circle><path d="M50 32 Q60 26 70 32" fill="none" stroke="#2F4A23" stroke-width="3.5" stroke-linecap="round"></path><circle cx="39" cy="35" r="5" fill="#1E2A17"></circle><circle cx="85" cy="35" r="5" fill="#1E2A17"></circle><circle cx="41" cy="33" r="1.8" fill="#fff"></circle><circle cx="87" cy="33" r="1.8" fill="#fff"></circle><ellipse cx="27" cy="61" rx="7" ry="4" fill="#F29C8F" opacity=".8"></ellipse><ellipse cx="93" cy="61" rx="7" ry="4" fill="#F29C8F" opacity=".8"></ellipse><path d="M49 60 Q60 70 71 60" fill="none" stroke="#2F4A23" stroke-width="3.5" stroke-linecap="round"></path></svg>